<svg width="523" height="598" viewBox="0 0 523 598" fill="none" xmlns="http://www.w3.org/2000/svg">
<path d="M130.191 27.9166C137.354 15.5092 155.263 15.5093 162.426 27.9167L217.226 122.833C224.39 135.241 215.436 150.75 201.109 150.75H91.5084C77.1816 150.75 68.2273 135.241 75.3907 122.833L130.191 27.9166Z" fill="#4E8FFF"/>
<path d="M153.132 67.2761L152.042 103.844H141.646L140.555 67.2761H153.132ZM140.264 114.022C140.192 110.46 143.209 107.552 146.807 107.552C150.297 107.552 153.387 110.46 153.423 114.022C153.387 117.693 150.297 120.638 146.807 120.638C143.209 120.638 140.192 117.693 140.264 114.022Z" fill="#2273FF"/>
<path d="M431.015 220.264V452.328C431.015 459.869 424.892 465.981 417.351 465.981H151.441C143.9 465.981 137.777 459.869 137.777 452.328V220.264C137.777 212.712 143.9 206.6 151.441 206.6H417.351C424.892 206.6 431.015 212.712 431.015 220.264Z" fill="#9CC1FF"/>
<path d="M400.253 232.381H168.529C162.373 232.381 157.383 237.371 157.383 243.528V421.074C157.383 427.231 162.373 432.221 168.529 432.221H400.253C406.409 432.221 411.399 427.231 411.399 421.074V243.528C411.399 237.371 406.409 232.381 400.253 232.381Z" fill="white"/>
<path d="M476.876 225.985C474.326 224.134 471.321 222.978 468.186 222.65C465.429 222.362 462.681 222.719 460.148 223.635L450.224 216.433C452.831 210.312 454.593 203.709 455.321 196.747C456.049 189.784 455.702 182.961 454.407 176.432L465.607 171.439C467.896 172.859 470.499 173.776 473.267 174.065C476.402 174.393 479.581 173.884 482.459 172.6C486.849 170.644 490.227 167.085 491.956 162.566C493.685 158.058 493.553 153.148 491.597 148.758L487.498 139.564C484.888 133.695 479.279 129.644 472.857 128.972C469.722 128.644 466.543 129.153 463.665 130.437C459.275 132.393 455.897 135.953 454.168 140.471C453.759 141.554 453.459 142.649 453.255 143.764L442.032 148.765C433.945 137.996 422.709 129.64 409.516 125.157L410.793 112.951C415.888 110.216 419.582 105.094 420.228 98.9208C421.263 89.0179 414.05 80.1322 404.158 79.0976L394.147 78.0507C384.244 77.015 375.358 84.2281 374.324 94.1202C373.678 100.293 376.233 106.069 380.652 109.799L379.375 122.004C365.54 123.661 352.808 129.51 342.679 138.375L332.733 131.16C332.763 130.037 332.697 128.894 332.522 127.75C331.763 122.982 329.206 118.801 325.306 115.967C322.756 114.116 319.751 112.96 316.616 112.632C310.205 111.962 303.878 114.775 300.1 119.965L294.188 128.112C291.365 132.003 290.221 136.78 290.979 141.548C291.737 146.316 294.295 150.496 298.195 153.33C300.745 155.181 303.75 156.337 306.885 156.665C309.642 156.953 312.39 156.596 314.923 155.68L324.847 162.882C322.24 169.003 320.478 175.606 319.75 182.569C319.022 189.531 319.369 196.354 320.664 202.883L309.464 207.876C307.175 206.456 304.572 205.539 301.804 205.25C298.669 204.922 295.49 205.431 292.612 206.715C288.222 208.671 284.844 212.231 283.114 216.749C281.386 221.257 281.519 226.156 283.474 230.558L287.572 239.752C290.183 245.62 295.791 249.682 302.214 250.343C305.349 250.671 308.528 250.162 311.406 248.878C315.796 246.922 319.174 243.363 320.903 238.844C321.312 237.761 321.612 236.667 321.816 235.551L333.039 230.55C341.126 241.319 352.362 249.675 365.554 254.159L364.278 266.364C361.604 267.79 359.331 269.88 357.664 272.438C356.155 274.75 355.151 277.454 354.843 280.394C353.808 290.297 361.021 299.183 370.913 300.218L380.924 301.265C390.827 302.3 399.712 295.087 400.747 285.195C401.392 279.022 398.828 273.235 394.419 269.516L395.696 257.311C409.541 255.655 422.263 249.805 432.392 240.94L442.338 248.155C442.308 249.278 442.374 250.422 442.549 251.566C443.307 256.334 445.865 260.514 449.765 263.348C452.315 265.199 455.32 266.355 458.455 266.683C464.866 267.354 471.193 264.54 474.971 259.35L480.883 251.203C483.706 247.312 484.85 242.536 484.092 237.768C483.334 233 480.776 228.82 476.876 225.985Z" fill="#EDF4FF"/>
<path d="M425.157 152.115C424.758 153.21 424.141 154.195 423.353 155.042C419.696 158.976 412.265 160.112 404.95 157.434C397.307 154.646 392.279 148.59 392.436 143.01C392.465 142.106 392.626 141.194 392.958 140.321C395.233 134.133 404.281 131.746 413.163 135.014C422.058 138.272 427.432 145.927 425.156 152.126L425.157 152.115Z" fill="#99C3FF"/>
<path d="M423.342 155.041C419.685 158.975 412.254 160.111 404.938 157.433C397.295 154.645 392.267 148.588 392.424 143.009C396.093 139.076 403.511 137.95 410.828 140.617C418.47 143.416 423.498 149.472 423.342 155.041Z" fill="#D8E6FF"/>
<path d="M382.844 151.221C381.781 153.864 378.68 155.824 374.975 155.928C370.669 156.024 367.056 153.581 366.479 150.318C366.44 150.063 366.403 149.796 366.398 149.523C366.31 145.874 370.006 142.829 374.652 142.713C379.298 142.598 383.141 145.459 383.229 149.108C383.24 149.841 383.111 150.549 382.845 151.21L382.844 151.221Z" fill="#99C3FF"/>
<path d="M382.844 151.22C381.781 153.863 378.68 155.823 374.975 155.928C370.67 156.024 367.056 153.58 366.479 150.318C367.532 147.674 370.645 145.704 374.349 145.61C378.654 145.514 382.268 147.958 382.844 151.22Z" fill="#D8E6FF"/>
<path d="M480.051 167.201C475.856 169.069 471.355 168.106 469.991 165.056C469.734 164.483 469.612 163.869 469.602 163.234C469.565 160.563 471.716 157.652 475.11 156.138C478.514 154.625 482.096 154.967 484.07 156.78C484.529 157.199 484.902 157.708 485.158 158.292C486.522 161.342 484.225 165.332 480.04 167.2L480.051 167.201Z" fill="#99C3FF"/>
<path d="M478.563 163.876C475.159 165.389 471.577 165.047 469.602 163.234C469.565 160.563 471.716 157.652 475.11 156.138C478.514 154.625 482.096 154.967 484.07 156.78C484.108 159.45 481.956 162.362 478.563 163.876Z" fill="#D8E6FF"/>
<path d="M464.648 261.079C460.464 262.948 455.952 261.984 454.599 258.935C454.476 258.649 454.375 258.365 454.319 258.064C453.682 255.167 455.922 251.718 459.727 250.029C462.811 248.657 466.052 248.81 468.103 250.205C468.837 250.708 469.424 251.36 469.777 252.173C471.141 255.222 468.844 259.212 464.648 261.079Z" fill="#99C3FF"/>
<path d="M462.684 258.229C459.602 259.59 456.36 259.448 454.309 258.053C453.672 255.155 455.912 251.707 459.718 250.017C462.801 248.645 466.042 248.799 468.093 250.193C468.73 253.091 466.489 256.54 462.684 258.229Z" fill="#D8E6FF"/>
<path d="M363.532 273.696C363.092 273.727 362.643 273.734 362.196 273.721C360.5 273.641 358.952 273.184 357.652 272.447C358.382 271.322 359.244 270.286 360.194 269.358C361.398 268.183 362.771 267.179 364.265 266.374L364.867 260.622C367.297 261.215 369.26 262.612 370.275 264.401C370.505 264.819 370.689 265.253 370.816 265.704C370.978 266.245 371.049 266.821 371.021 267.408C370.867 270.758 367.631 273.382 363.531 273.707L363.532 273.696Z" fill="#99C3FF"/>
<path d="M370.818 265.704C369.68 267.913 367.056 269.486 363.949 269.729C363.508 269.759 363.06 269.767 362.613 269.753C361.765 269.708 360.959 269.58 360.206 269.359C361.411 268.185 362.784 267.181 364.278 266.375L364.879 260.624C367.309 261.217 369.272 262.613 370.287 264.403C370.517 264.82 370.701 265.255 370.829 265.705L370.818 265.704Z" fill="#D8E6FF"/>
<path d="M371.087 236.157C371.025 236.752 370.843 237.345 370.578 237.896C368.967 241.171 364.274 242.155 360.106 240.102C355.938 238.048 353.865 233.733 355.475 230.459C355.751 229.908 356.109 229.41 356.535 228.996C358.653 226.933 362.475 226.546 365.936 228.252C369.407 229.96 371.416 233.219 371.087 236.157Z" fill="#99C3FF"/>
<path d="M371.088 236.158C368.96 238.22 365.148 238.608 361.687 236.902C358.226 235.195 356.207 231.935 356.547 228.998C358.664 226.935 362.486 226.548 365.947 228.254C369.419 229.961 371.428 233.221 371.099 236.159L371.088 236.158Z" fill="#D8E6FF"/>
<path d="M388.812 164.49C392.21 164.845 395.149 163.362 395.377 161.177C395.606 158.991 393.037 156.932 389.64 156.576C386.242 156.221 383.303 157.705 383.074 159.89C382.846 162.075 385.415 164.135 388.812 164.49Z" fill="#D8E6FF"/>
<path d="M430.041 231.313C432.569 229.264 433.328 226.011 431.736 224.048C430.145 222.085 426.805 222.154 424.278 224.203C421.75 226.252 420.991 229.505 422.583 231.468C424.175 233.431 427.514 233.362 430.041 231.313Z" fill="#D8E6FF"/>
<path d="M435.311 218.246C439.056 217.638 441.588 214.042 440.967 210.214C440.345 206.386 436.805 203.776 433.06 204.384C429.315 204.992 426.783 208.588 427.404 212.416C428.026 216.244 431.565 218.854 435.311 218.246Z" fill="#D8E6FF"/>
<path d="M335.47 188.071C338.784 188.417 341.751 186.012 342.097 182.698C342.444 179.384 340.039 176.417 336.725 176.07C333.411 175.724 330.444 178.129 330.097 181.443C329.751 184.757 332.156 187.724 335.47 188.071Z" fill="#D8E6FF"/>
<path d="M306.4 151.161C308.746 151.406 310.834 149.834 311.062 147.648C311.291 145.463 309.574 143.492 307.227 143.247C304.881 143.002 302.793 144.574 302.565 146.76C302.336 148.945 304.053 150.915 306.4 151.161Z" fill="#D8E6FF"/>
<g style="mix-blend-mode:multiply">
<path d="M431.015 290.002V452.317C431.015 459.859 424.892 465.981 417.351 465.981H151.441C143.9 465.981 137.777 459.859 137.777 452.317V268.381L157.329 268.189L157.383 263.165H267.282C270.684 263.165 273.948 264.52 276.348 266.92L293.788 284.36C297.394 287.965 302.3 290.002 307.399 290.002H431.004H431.015Z" fill="#EDEDED"/>
</g>
<path d="M269.98 276.765H133.906C124.178 279.357 117.671 288.434 118.386 298.397L118.45 299.283L138.236 461.896C138.524 464.232 140.519 465.992 142.898 465.992H426.311C428.903 465.992 431.005 463.901 431.005 461.331V307.624C431.005 303.016 427.239 299.283 422.599 299.283H299.282C296.711 299.283 294.268 298.227 292.508 296.371L276.754 279.677C275.004 277.821 272.551 276.765 269.98 276.765Z" fill="#C6DBFF"/>
<path d="M89.3011 417.627C89.0506 415.49 89.3664 413.314 90.2187 411.338C90.9682 409.6 92.0993 408.083 93.4908 406.88L92.5183 398.564C88.002 398.071 83.4813 396.914 79.0919 395.021C74.7025 393.128 70.755 390.642 67.2997 387.689L60.584 392.69C60.6647 394.527 60.3408 396.384 59.5884 398.129C58.736 400.106 57.3706 401.829 55.6446 403.113C53.0126 405.074 49.7642 405.896 46.4954 405.416C43.2334 404.939 40.3533 403.22 38.3924 400.588L34.287 395.075C31.6643 391.56 31.1262 386.866 32.872 382.817C33.7244 380.841 35.0898 379.118 36.8159 377.833C39.4479 375.872 42.6962 375.05 45.965 375.53C46.7464 375.649 47.4984 375.836 48.2308 376.087L54.9592 371.075C51.2481 362.66 50.0268 353.177 51.765 343.823L44.07 340.504C40.7388 342.624 36.4542 343.113 32.5624 341.435C26.3191 338.742 23.4378 331.478 26.1271 325.241L28.8488 318.93C31.5411 312.686 38.8057 309.805 45.0421 312.495C48.934 314.173 51.5197 317.624 52.2644 321.502L59.9595 324.82C65.5692 317.135 73.3067 311.507 81.9703 308.437L80.9968 300.104C80.3183 299.747 79.6594 299.325 79.0368 298.838C76.4508 296.794 74.816 293.874 74.4316 290.604C74.181 288.467 74.4968 286.291 75.3492 284.315C77.0921 280.273 80.882 277.445 85.2349 276.93L92.062 276.131C95.322 275.751 98.5489 276.665 101.135 278.71C103.721 280.755 105.356 283.675 105.74 286.944C105.991 289.081 105.675 291.257 104.822 293.233C104.073 294.972 102.942 296.488 101.55 297.691L102.523 306.008C107.039 306.5 111.56 307.658 115.949 309.55C120.339 311.443 124.286 313.93 127.742 316.883L134.457 311.881C134.377 310.044 134.7 308.187 135.453 306.442C136.305 304.466 137.671 302.743 139.397 301.458C142.029 299.497 145.277 298.675 148.546 299.155C151.808 299.632 154.681 301.348 156.649 303.983L160.754 309.496C163.377 313.011 163.922 317.708 162.169 321.754C161.317 323.731 159.951 325.454 158.225 326.738C155.593 328.699 152.345 329.521 149.076 329.041C148.295 328.923 147.543 328.736 146.81 328.485L140.082 333.497C143.793 341.911 145.014 351.394 143.276 360.749L150.971 364.067C152.713 362.951 154.718 362.296 156.798 362.158C158.679 362.032 160.625 362.337 162.479 363.137C168.722 365.829 171.603 373.094 168.914 379.33L166.192 385.642C163.5 391.885 156.236 394.766 149.999 392.077C146.107 390.398 143.518 386.938 142.777 383.07L135.082 379.751C129.469 387.443 121.735 393.064 113.071 396.134L114.044 404.467C114.723 404.825 115.382 405.246 116.004 405.733C118.59 407.778 120.225 410.698 120.61 413.967C120.86 416.104 120.544 418.28 119.692 420.257C117.949 424.298 114.159 427.126 109.806 427.642L102.979 428.44C99.7192 428.821 96.4923 427.906 93.9063 425.861C91.3203 423.817 89.6856 420.897 89.3011 417.627Z" fill="#76ABFF"/>
<path d="M62.5938 362.144C63.379 362.273 64.1715 362.235 64.939 362.048C68.5041 361.185 71.6632 357.14 72.5132 351.888C73.4066 346.405 71.4803 341.387 68.1052 339.616C67.5571 339.332 66.9601 339.123 66.3297 339.029C61.8841 338.316 57.4392 342.906 56.4171 349.288C55.3853 355.673 58.1481 361.432 62.6006 362.147L62.5938 362.144Z" fill="#3288FF"/>
<path d="M64.9404 362.042C68.5056 361.179 71.6647 357.133 72.5146 351.882C73.408 346.399 71.4817 341.381 68.1066 339.61C64.5385 340.48 61.3892 344.522 60.5324 349.77C59.6458 355.256 61.5721 360.274 64.9404 362.042Z" fill="#4E8FFF"/>
<path d="M76.1987 336.649C78.128 336.899 80.3313 335.707 81.6315 333.535C83.1274 331.004 82.8797 328.035 81.1295 326.602C80.9904 326.493 80.8445 326.382 80.6829 326.288C78.5396 325.016 75.4912 326.199 73.8701 328.927C72.249 331.656 72.6686 334.9 74.8119 336.172C75.2451 336.423 75.7096 336.583 76.1919 336.646L76.1987 336.649Z" fill="#3288FF"/>
<path d="M76.1976 336.649C78.1268 336.899 80.3302 335.707 81.6304 333.535C83.1262 331.004 82.8785 328.035 81.1284 326.602C79.2021 326.345 76.989 327.541 75.6956 329.715C74.1997 332.247 74.4474 335.215 76.1976 336.649Z" fill="#4E8FFF"/>
<path d="M53.2345 399.875C55.7484 398.001 56.6791 394.999 55.3187 393.168C55.0632 392.823 54.7383 392.545 54.3635 392.327C52.7857 391.412 50.3328 391.721 48.2973 393.236C46.2589 394.757 45.2655 397.005 45.6855 398.786C45.7821 399.2 45.9605 399.592 46.2229 399.939C47.5833 401.771 50.7265 401.736 53.2375 399.868L53.2345 399.875Z" fill="#3288FF"/>
<path d="M51.7517 397.878C53.7902 396.356 54.7835 394.109 54.3635 392.327C52.7857 391.412 50.3328 391.721 48.2973 393.236C46.2589 394.757 45.2655 397.005 45.6855 398.786C47.2633 399.701 49.7162 399.393 51.7517 397.878Z" fill="#4E8FFF"/>
<path d="M114.286 422.072C116.797 420.204 117.73 417.196 116.367 415.371C116.238 415.202 116.103 415.047 115.942 414.913C114.43 413.565 111.627 413.747 109.349 415.449C107.502 416.827 106.511 418.808 106.656 420.495C106.71 421.101 106.902 421.668 107.268 422.149C108.629 423.981 111.772 423.946 114.286 422.072Z" fill="#3288FF"/>
<path d="M113.245 419.95C115.085 418.569 116.084 416.59 115.938 414.903C114.426 413.556 111.623 413.737 109.346 415.439C107.498 416.817 106.507 418.798 106.652 420.485C108.165 421.833 110.967 421.651 113.245 419.95Z" fill="#4E8FFF"/>
<path d="M155.587 366.074C155.752 365.822 155.907 365.557 156.047 365.286C156.567 364.249 156.812 363.175 156.808 362.154C155.894 362.213 154.989 362.38 154.119 362.636C153.017 362.961 151.96 363.443 150.981 364.063L147.355 362.5C146.896 364.145 147.072 365.781 147.798 366.983C147.97 367.259 148.167 367.514 148.393 367.741C148.661 368.018 148.981 368.253 149.34 368.432C151.386 369.46 154.03 368.409 155.593 366.077L155.587 366.074Z" fill="#3288FF"/>
<path d="M148.393 367.74C150.089 367.801 151.902 366.764 153.085 364.995C153.251 364.743 153.405 364.478 153.546 364.207C153.803 363.687 153.996 363.164 154.116 362.642C153.014 362.967 151.957 363.449 150.978 364.07L147.352 362.506C146.893 364.151 147.069 365.787 147.795 366.99C147.967 367.266 148.164 367.521 148.39 367.747L148.393 367.74Z" fill="#4E8FFF"/>
<path d="M130.707 358.029C131.082 358.19 131.496 358.28 131.913 358.306C134.401 358.441 136.556 355.975 136.726 352.807C136.896 349.639 135.019 346.962 132.531 346.827C132.111 346.808 131.694 346.855 131.305 346.97C129.369 347.541 127.862 349.688 127.721 352.319C127.578 354.957 128.848 357.243 130.707 358.029Z" fill="#3288FF"/>
<path d="M130.708 358.028C132.647 357.45 134.152 355.31 134.292 352.679C134.433 350.048 133.166 347.755 131.303 346.976C129.367 347.548 127.86 349.695 127.719 352.326C127.576 354.964 128.845 357.249 130.705 358.035L130.708 358.028Z" fill="#4E8FFF"/>
<path d="M82.1059 344.636C81.1822 346.778 79.3166 348.033 77.9389 347.439C76.5611 346.844 76.193 344.627 77.1167 342.485C78.0403 340.343 79.9059 339.088 81.2837 339.682C82.6614 340.276 83.0295 342.494 82.1059 344.636Z" fill="#4E8FFF"/>
<path d="M108.124 391.517C106.059 392.338 103.869 391.703 103.231 390.099C102.594 388.495 103.751 386.53 105.816 385.709C107.881 384.889 110.071 385.524 110.709 387.128C111.346 388.731 110.189 390.697 108.124 391.517Z" fill="#4E8FFF"/>
<path d="M98.5801 390.289C96.9667 392.316 93.979 392.622 91.907 390.973C89.835 389.324 89.4633 386.344 91.0767 384.317C92.6901 382.29 95.6777 381.983 97.7497 383.633C99.8217 385.282 100.193 388.262 98.5801 390.289Z" fill="#4E8FFF"/>
<path d="M113.973 320.75C113.072 322.84 110.649 323.803 108.559 322.902C106.47 322.001 105.507 319.577 106.408 317.488C107.309 315.399 109.733 314.435 111.822 315.336C113.911 316.237 114.874 318.661 113.973 320.75Z" fill="#4E8FFF"/>
<path d="M101.707 291.105C101.069 292.585 99.4352 293.302 98.0574 292.708C96.6797 292.114 96.08 290.433 96.7179 288.954C97.3559 287.475 98.9899 286.757 100.368 287.351C101.745 287.945 102.345 289.626 101.707 291.105Z" fill="#4E8FFF"/>
<path d="M161.073 525.667C164.067 520.481 171.551 520.481 174.544 525.667L197.446 565.333C200.44 570.519 196.697 577 190.71 577H144.907C138.92 577 135.178 570.519 138.171 565.333L161.073 525.667Z" fill="#A7C8FF"/>
<path d="M170.687 543.503L170.231 558.786H165.886L165.431 543.503H170.687ZM165.309 563.039C165.279 561.55 166.539 560.335 168.043 560.335C169.502 560.335 170.793 561.55 170.808 563.039C170.793 564.573 169.502 565.804 168.043 565.804C166.539 565.804 165.279 564.573 165.309 563.039Z" fill="#2273FF"/>
<path d="M436.361 427.694C441.671 418.497 454.946 418.497 460.257 427.694L500.88 498.056C506.19 507.253 499.552 518.75 488.932 518.75H407.686C397.065 518.75 390.427 507.253 395.738 498.056L436.361 427.694Z" fill="white"/>
<path d="M453.101 459.816L452.293 486.923H444.586L443.778 459.816H453.101ZM443.562 494.468C443.508 491.828 445.745 489.672 448.413 489.672C450.999 489.672 453.29 491.828 453.317 494.468C453.29 497.19 450.999 499.372 448.413 499.372C445.745 499.372 443.508 497.19 443.562 494.468Z" fill="#2273FF"/>
</svg>
