<svg width="13" height="13" viewBox="0 0 13 13" fill="none" xmlns="http://www.w3.org/2000/svg">
<path d="M0.991518 0.12833L6.49567 5.62839L11.9413 0.183018C12.3125 -0.147693 12.6975 0.0496343 12.8501 0.21612C13.0028 0.382607 13.0899 0.775291 12.8146 1.05638L7.36782 6.50054L12.8146 11.9423C13.0569 12.1456 13.0569 12.5438 12.8624 12.7657C12.6679 12.9875 12.3106 13.1164 11.9728 12.8533L6.49567 7.37269L1.01168 12.8555C0.771911 13.0705 0.375742 13.0269 0.179458 12.8128C-0.016827 12.5988 -0.0913241 12.2284 0.159671 11.967L5.62351 6.50054L0.18193 1.05638C-0.0166432 0.836454 -0.0859891 0.435424 0.18193 0.183018C0.44985 -0.0693874 0.849318 -0.0341664 0.991518 0.12833Z" fill="#B6B6B6"/>
</svg>
