<svg width="8" height="8" viewBox="0 0 8 8" fill="none" xmlns="http://www.w3.org/2000/svg">
<path d="M0.610181 0.0789743L3.99744 3.46372L7.34866 0.11263C7.5771 -0.0908905 7.81405 0.030545 7.90798 0.133001C8.00191 0.235457 8.05555 0.477115 7.88613 0.650099L4.53416 4.00044L7.88613 7.34933C8.0352 7.4744 8.0352 7.71948 7.91553 7.856C7.79585 7.99253 7.57598 8.07182 7.36808 7.90992L3.99744 4.53716L0.622588 7.91126C0.475035 8.04361 0.231232 8.01675 0.110438 7.88503C-0.0103554 7.75332 -0.0562009 7.52536 0.0982617 7.3645L3.46072 4.00044L0.11196 0.650099C-0.0102422 0.514754 -0.0529178 0.26796 0.11196 0.11263C0.276838 -0.042701 0.522671 -0.021026 0.610181 0.0789743Z" fill="#555555"/>
</svg>
